999
The file was created in CADSoftTools software
999

  0
SECTION
  2
HEADER
  9
$ACADVER
  1
AC1015
  9
$DWGCODEPAGE
  3
ANSI_1252
  9
$CLAYER
  8
0
  9
$CELTYPE
  6
BYLAYER
  9
$CELTSCALE
 40
1
  9
$CELWEIGHT
370
-1
  9
$DIMALT
 70
0
  9
$DIMALTF
 40
1
  9
$DIMLUNIT
 70
5
  9
$DIMSTYLE
  2
$STANDARD
  9
$INSUNITS
 70
1
  9
$DIMTXT
 40
0.8125
  9
$DIMPOST
  1

  9
$DIMAPOST
  1

  9
$DIMSCALE
 40
1
  9
$DIMASZ
 40
0.18
  9
$DIMCLRD
 70
0
  9
$DIMCLRE
 70
0
  9
$DIMCLRT
 70
0
  9
$DIMEXE
 40
0.18
  9
$DIMEXO
 40
0.0625
  9
$DIMGAP
 40
0.0625
  9
$DIMLFAC
 40
1
  9
$DIMDEC
 70
4
  9
$DIMTAD
 70
0
  9
$DIMCEN
 40
0.09
  9
$DIMTIH
 70
1
  9
$DIMTIX
 70
0
  9
$DIMTOH
 70
1
  9
$DIMSE1
 70
0
  9
$DIMSE2
 70
0
  9
$DIMSD1
 70
0
  9
$DIMSD2
 70
0
  9
$DIMLWD
 70
-1
  9
$DIMLWE
 70
-1
  9
$DIMSAH
 70
0
  9
$DIMBLK
  1

  9
$DIMBLK1
  1

  9
$DIMBLK2
  1

  9
$DIMLDRBLK
  1

  9
$DIMTP
 40
0
  9
$DIMTM
 40
0
  9
$DIMDSEP
 70
46
  9
$DIMTXSTY
  7
STANDARD
  9
$TEXTSIZE
 40
0.18
  9
$TEXTSTYLE
  7
STANDARD
  9
$HANDSEED
  5
0000000000000049
  9
$FILLETRAD
 40
0.5
  9
$LIMMIN
 10
-3.515625
 20
-9.5625
  9
$LIMMAX
 10
31.640625
 20
86.0625
  9
$FILLMODE
 70
1
  9
$LTSCALE
 40
1
  9
$MEASUREMENT
 70
0
  9
$ATTMODE
 70
1
  9
$PDMODE
 70
0
  9
$PDSIZE
 40
0
  9
$TILEMODE
 70
1
  9
$UCSORG
 10
0
 20
0
 30
0
  9
$UCSXDIR
 10
1
 20
0
 30
0
  9
$UCSYDIR
 10
0
 20
1
 30
0
  9
$INSBASE
 10
0
 20
0
 30
0
  0
ENDSEC
  0
SECTION
  2
CLASSES
  0
CLASS
  1
IMAGE
  2
AcDbRasterImage
  3
ISM
 90
2175
280
0
281
1
  0
CLASS
  1
IMAGEDEF
  2
AcDbRasterImageDef
  3
ISM
 90
0
280
0
281
0
  0
CLASS
  1
WIPEOUT
  2
AcDbWipeout
  3
"WipeOut"
 90
2175
280
0
281
1
  0
CLASS
  1
WIPEOUTVARIABLES
  2
AcDbWipeoutVariables
  3
"WipeOut"
 90
0
280
0
281
0
  0
CLASS
  1
MPOLYGON
  2
AcDbMPolygon
  3
"AcMPolygonObj15"
 90
3071
280
0
281
1
  0
ENDSEC
  0
SECTION
  2
TABLES
  0
TABLE
  2
APPID
  5
33
100
AcDbSymbolTable
  0
APPID
  5
34
100
AcDbSymbolTableRecord
100
AcDbRegAppTableRecord
  2
ACAD
 70
0
  0
APPID
  5
12
100
AcDbSymbolTableRecord
100
AcDbRegAppTableRecord
  2
CSTINVENTORY
 70
0
  0
APPID
  5
35
100
AcDbSymbolTableRecord
100
AcDbRegAppTableRecord
  2
AcDbAttr
 70
0
  0
APPID
  5
36
100
AcDbSymbolTableRecord
100
AcDbRegAppTableRecord
  2
PE_URL
 70
0
  0
ENDTAB
  0
TABLE
  2
BLOCK_RECORD
  5
37
100
AcDbSymbolTable
  0
BLOCK_RECORD
  5
18
100
AcDbSymbolTableRecord
100
AcDbBlockTableRecord
  2
*MODEL_SPACE
  0
BLOCK_RECORD
  5
15
100
AcDbSymbolTableRecord
100
AcDbBlockTableRecord
  2
*PAPER_SPACE
  0
BLOCK_RECORD
  5
10
100
AcDbSymbolTableRecord
100
AcDbBlockTableRecord
  2
_CLOSEDFILLED
  0
ENDTAB
  0
TABLE
  2
STYLE
  5
3
100
AcDbSymbolTable
  0
STYLE
  5
A
100
AcDbSymbolTableRecord
100
AcDbTextStyleTableRecord
  2
STANDARD
 70
0
 40
0
 41
1
 50
0
 71
0
 42
2.5
  3
txt
  4

1001
ACAD
1000

1071
0
  0
ENDTAB
  0
TABLE
  2
LTYPE
  5
1
100
AcDbSymbolTable
  0
LTYPE
  5
9
100
AcDbSymbolTableRecord
100
AcDbLinetypeTableRecord
  2
CONTINUOUS
 70
0
  3

 72
65
 73
0
 40
0
  0
LTYPE
  5
7
100
AcDbSymbolTableRecord
100
AcDbLinetypeTableRecord
  2
BYLAYER
 70
0
  3

 72
65
 73
0
 40
0
  0
LTYPE
  5
8
100
AcDbSymbolTableRecord
100
AcDbLinetypeTableRecord
  2
BYBLOCK
 70
0
  3

 72
65
 73
0
 40
0
  0
LTYPE
  5
13
100
AcDbSymbolTableRecord
100
AcDbLinetypeTableRecord
  2
SBDashedLine
 70
0
  3
_ 
 72
65
 73
2
 40
0.375
 49
0.21875
 74
0
 49
-0.15625
 74
0
  0
ENDTAB
  0
TABLE
  2
LAYER
  5
2
100
AcDbSymbolTable
  0
LAYER
  5
E
100
AcDbSymbolTableRecord
100
AcDbLayerTableRecord
  2
0
 70
0
 62
7
  6
CONTINUOUS
290
1
370
-3
390
0
  0
ENDTAB
  0
TABLE
  2
VPORT
  5
38
100
AcDbSymbolTable
  0
VPORT
  5
3A
100
AcDbSymbolTableRecord
100
AcDbViewportTableRecord
  2
*ACTIVE
 70
0
 10
0
 20
0
 11
1
 21
1
 12
14.0625
 22
38.25
 32
0
 13
0
 23
0
 14
1
 24
1
 15
1
 25
1
 16
0
 26
0
 36
1
 17
0
 27
0
 37
0
 40
76.5
 41
0.367647058823529
 42
50
 43
0
 44
0
 50
0
 51
0
 71
0
 72
100
 73
1
 74
1
 75
0
 76
0
 77
0
 78
0
  0
ENDTAB
  0
TABLE
  2
VIEW
  5
3B
100
AcDbSymbolTable
  0
ENDTAB
  0
TABLE
  2
UCS
  5
3C
100
AcDbSymbolTable
  0
ENDTAB
  0
TABLE
  2
DIMSTYLE
  5
4
100
AcDbSymbolTable
 70
1
100
AcDbDimStyleTable
 71
0
  0
DIMSTYLE
105
B
100
AcDbSymbolTableRecord
100
AcDbDimStyleTableRecord
  2
STANDARD
 70
0
  3

 40
1
 41
0.18
 42
0.0625
 44
0.18
 47
0
 48
0
 73
1
 74
1
 75
0
 76
0
 77
0
140
0.8125
277
5
141
0.09
144
1
147
0.0625
173
0
174
0
176
0
177
0
178
0
278
46
281
0
282
0
271
4
340
A
371
-1
372
-1
  0
ENDTAB
  0
ENDSEC
  0
SECTION
  2
BLOCKS
  0
BLOCK
  5
3D
100
AcDbEntity
  8
0
100
AcDbBlockBegin
  2
*MODEL_SPACE
 70
0
 10
0
 20
0
  0
ENDBLK
  5
3E
100
AcDbEntity
  8
0
100
AcDbBlockEnd
  0
BLOCK
  5
3F
100
AcDbEntity
  8
0
100
AcDbBlockBegin
  2
*PAPER_SPACE
 70
0
 10
0
 20
0
  0
ENDBLK
  5
40
100
AcDbEntity
  8
0
100
AcDbBlockEnd
  0
BLOCK
  5
F
100
AcDbEntity
  8
0
100
AcDbBlockBegin
  2
_CLOSEDFILLED
 70
0
 10
0
 20
0
 30
0
  3
_CLOSEDFILLED
  1

  0
SOLID
  5
C
100
AcDbEntity
  8
0
100
AcDbTrace
370
-2
 62
0
 10
-1
 20
0.166666666666667
 30
0
 11
0
 21
0
 31
0
 12
-1
 22
0.166666666666667
 32
0
 13
-1
 23
-0.166666666666667
 33
0
  0
LINE
  5
D
100
AcDbEntity
  8
0
100
AcDbLine
370
-2
 62
0
 10
-1
 20
0
 30
0
 11
-2
 21
0
 31
0
  0
ENDBLK
  5
41
100
AcDbEntity
  8
0
100
AcDbBlockEnd
  0
ENDSEC
  0
SECTION
  2
ENTITIES
  0
LINE
  5
16
100
AcDbEntity
  8
0
100
AcDbLine
370
90
 62
7
 10
0.125
 20
0.125
 30
0
 11
0.113952534084846
 21
6.87500167415909
 31
0
  0
LINE
  5
19
100
AcDbEntity
  8
0
100
AcDbLine
370
90
 62
7
 10
0.113952534084846
 20
6.87500167415909
 30
0
 11
1.14208650487072
 21
6.87668438114892
 31
0
  0
ARC
  5
1A
100
AcDbEntity
  8
0
100
AcDbCircle
370
90
 62
7
  6
BYLAYER
 10
1.14270025200288
 20
6.50168488339664
 30
0
 40
0.375
100
AcDbArc
 50
46.7520154689388
 51
90.0937736961613
  0
ARC
  5
1B
100
AcDbEntity
  8
0
100
AcDbCircle
370
90
 62
7
  6
BYLAYER
 10
1.61374594271655
 20
7.00245649527183
 30
0
 40
0.3125
100
AcDbArc
 50
226.752015468939
 51
384.713751024818
  0
ARC
  5
1C
100
AcDbEntity
  8
0
100
AcDbCircle
370
90
 62
7
  6
BYLAYER
 10
2.23827634852189
 20
7.28989000449548
 30
0
 40
0.375
100
AcDbArc
 50
180.093773696161
 51
204.713751024818
  0
LINE
  5
1D
100
AcDbEntity
  8
0
100
AcDbLine
370
90
 62
7
 10
1.86327685076962
 20
7.28927625736331
 30
0
 11
1.86053188220687
 21
8.96645204920355
 31
0
  0
ARC
  5
1E
100
AcDbEntity
  8
0
100
AcDbCircle
370
90
 62
7
  6
BYLAYER
 10
2.23553137995914
 20
8.96706579633571
 30
0
 40
0.375
100
AcDbArc
 50
155.473796367504
 51
180.093773696161
  0
ARC
  5
1F
100
AcDbEntity
  8
0
100
AcDbCircle
370
90
 62
7
  6
BYLAYER
 10
1.61006345992357
 20
9.25245348178548
 30
0
 40
0.3125
100
AcDbArc
 50
335.473796367504
 51
493.435531923384
  0
ARC
  5
20
100
AcDbEntity
  8
0
100
AcDbCircle
370
90
 62
7
  6
BYLAYER
 10
1.13738111019079
 20
9.75168053058301
 30
0
 40
0.375
100
AcDbArc
 50
270.093773696161
 51
313.435531923384
  0
LINE
  5
21
100
AcDbEntity
  8
0
100
AcDbLine
370
90
 62
7
 10
1.13799485732296
 20
9.37668103283074
 30
0
 11
0.109860886537085
 21
9.37499832584091
 31
0
  0
LINE
  5
22
100
AcDbEntity
  8
0
100
AcDbLine
370
90
 62
7
 10
0.109860886537085
 20
9.37499832584091
 30
0
 11
0.0151391134629148
 21
67.2500016741591
 31
0
  0
LINE
  5
23
100
AcDbEntity
  8
0
100
AcDbLine
370
90
 62
7
 10
0.011047465915154
 20
69.7499983258409
 30
0
 11
1.03918143670102
 21
69.7516810328307
 31
0
  0
ARC
  5
24
100
AcDbEntity
  8
0
100
AcDbCircle
370
90
 62
7
  6
BYLAYER
 10
1.03856768956886
 20
70.126680530583
 30
0
 40
0.375
100
AcDbArc
 50
270.093773696161
 51
313.435531923384
  0
ARC
  5
25
100
AcDbEntity
  8
0
100
AcDbCircle
370
90
 62
7
  6
BYLAYER
 10
1.51125003930164
 20
69.6274534817855
 30
0
 40
0.3125
100
AcDbArc
 50
335.473796367504
 51
493.435531923383
  0
ARC
  5
26
100
AcDbEntity
  8
0
100
AcDbCircle
370
90
 62
7
  6
BYLAYER
 10
2.13671795933721
 20
69.3420657963357
 30
0
 40
0.375
100
AcDbArc
 50
155.473796367504
 51
180.093773696161
  0
LINE
  5
27
100
AcDbEntity
  8
0
100
AcDbLine
370
90
 62
7
 10
1.76171846158494
 20
69.3414520492036
 30
0
 11
1.76446343014769
 21
67.6642762573633
 31
0
  0
ARC
  5
28
100
AcDbEntity
  8
0
100
AcDbCircle
370
90
 62
7
  6
BYLAYER
 10
2.13946292789996
 20
67.6648900044955
 30
0
 40
0.375
100
AcDbArc
 50
180.093773696161
 51
204.713751024817
  0
ARC
  5
29
100
AcDbEntity
  8
0
100
AcDbCircle
370
90
 62
7
  6
BYLAYER
 10
1.51493252209462
 20
67.3774564952718
 30
0
 40
0.3125
100
AcDbArc
 50
226.75201546894
 51
384.713751024818
  0
ARC
  5
2A
100
AcDbEntity
  8
0
100
AcDbCircle
370
90
 62
7
  6
BYLAYER
 10
1.04388683138095
 20
66.8766848833966
 30
0
 40
0.375
100
AcDbArc
 50
46.7520154689386
 51
90.0937736961613
  0
LINE
  5
2B
100
AcDbEntity
  8
0
100
AcDbLine
370
90
 62
7
 10
1.04327308424878
 20
67.2516843811489
 30
0
 11
0.0151391134629148
 21
67.2500016741591
 31
0
  0
LINE
  5
2C
100
AcDbEntity
  8
0
100
AcDbLine
370
90
 62
7
 10
0.011047465915154
 20
69.7499983258409
 30
0
 11
0
 21
76.5
 31
0
  0
LINE
  5
2D
100
AcDbEntity
  8
0
100
AcDbLine
370
90
 62
7
 10
0.125
 20
0.125
 30
0
 11
28.125
 21
0
 31
0
  0
CIRCLE
  5
2E
100
AcDbEntity
  8
0
100
AcDbCircle
370
90
 62
7
  6
BYLAYER
 10
25.125
 20
32
 30
0
 40
0.25
  0
CIRCLE
  5
2F
100
AcDbEntity
  8
0
100
AcDbCircle
370
90
 62
7
  6
BYLAYER
 10
25.125
 20
40
 30
0
 40
0.25
  0
LINE
  5
30
100
AcDbEntity
  8
0
100
AcDbLine
370
90
 62
7
 10
28.125
 20
0
 30
0
 11
28.125
 21
76.5
 31
0
  0
LINE
  5
31
100
AcDbEntity
  8
0
100
AcDbLine
370
90
 62
7
 10
0
 20
76.5
 30
0
 11
28.125
 21
76.5
 31
0
  0
ENDSEC
  0
SECTION
  2
OBJECTS
  0
DICTIONARY
  5
42
100
AcDbDictionary
  3
ACAD_GROUP
350
43
  3
ACAD_MATERIAL
350
44
  3
ACAD_WIPEOUT_VARS
350
45
  3
ACAD_MLINESTYLE
350
46
  3
ACAD_LAYOUT
350
47
  0
DICTIONARY
  5
43
330
42
100
AcDbDictionary
  0
DICTIONARY
  5
44
330
42
100
AcDbDictionary
  0
WIPEOUTVARIABLES
  5
45
330
42
100
AcDbWipeoutVariables
 70
1
  0
DICTIONARY
  5
46
330
42
100
AcDbDictionary
  3
STANDARD
350
48
  0
MLINESTYLE
  5
48
100
AcDbMlineStyle
  2
STANDARD
 70
0
  3

 62
256
 51
90
 52
90
 71
2
 49
0.5
 62
256
  6
ByLayer
 49
-0.5
 62
256
  6
ByLayer
  0
DICTIONARY
  5
47
100
AcDbDictionary
281
1
  3
Model
350
32
  0
LAYOUT
  5
32
102
{ACAD_REACTORS
330
47
102
}
330
47
100
AcDbPlotSettings
  1

  2
none_device
  4

  6

 40
0
 41
0
 42
0
 43
0
 44
0
 45
0
 46
0
 47
0
 48
0
 49
0
 70
1712
 72
1
 73
0
 74
5
 75
16
 76
0
 77
0
 78
100
140
0
141
0
142
1
143
1
147
1
148
0
149
0
100
AcDbLayout
  1
Model
 70
1
 71
1
 10
0
 20
0
 11
28.125
 21
76.5
 12
0
 22
0
 32
0
 14
0
 24
0
 34
0
 15
28.125
 25
76.5
 35
0
146
0
 13
0
 23
0
 33
0
 16
1
 26
0
 36
0
 17
0
 27
1
 37
0
 76
0
330
18
  0
ENDSEC
  0
EOF
