999
The file was created in CADSoftTools software
999

  0
SECTION
  2
HEADER
  9
$ACADVER
  1
AC1015
  9
$DWGCODEPAGE
  3
ANSI_1252
  9
$CLAYER
  8
0
  9
$CELTYPE
  6
BYLAYER
  9
$CELTSCALE
 40
1
  9
$CELWEIGHT
370
-1
  9
$DIMALT
 70
0
  9
$DIMALTF
 40
1
  9
$DIMLUNIT
 70
5
  9
$DIMSTYLE
  2
$STANDARD
  9
$INSUNITS
 70
1
  9
$DIMTXT
 40
0.8125
  9
$DIMPOST
  1

  9
$DIMAPOST
  1

  9
$DIMSCALE
 40
1
  9
$DIMASZ
 40
0.18
  9
$DIMCLRD
 70
0
  9
$DIMCLRE
 70
0
  9
$DIMCLRT
 70
0
  9
$DIMEXE
 40
0.18
  9
$DIMEXO
 40
0.0625
  9
$DIMGAP
 40
0.0625
  9
$DIMLFAC
 40
1
  9
$DIMDEC
 70
4
  9
$DIMTAD
 70
0
  9
$DIMCEN
 40
0.09
  9
$DIMTIH
 70
1
  9
$DIMTIX
 70
0
  9
$DIMTOH
 70
1
  9
$DIMSE1
 70
0
  9
$DIMSE2
 70
0
  9
$DIMSD1
 70
0
  9
$DIMSD2
 70
0
  9
$DIMLWD
 70
-1
  9
$DIMLWE
 70
-1
  9
$DIMSAH
 70
0
  9
$DIMBLK
  1

  9
$DIMBLK1
  1

  9
$DIMBLK2
  1

  9
$DIMLDRBLK
  1

  9
$DIMTP
 40
0
  9
$DIMTM
 40
0
  9
$DIMDSEP
 70
46
  9
$DIMTXSTY
  7
STANDARD
  9
$TEXTSIZE
 40
0.18
  9
$TEXTSTYLE
  7
STANDARD
  9
$HANDSEED
  5
0000000000000049
  9
$FILLETRAD
 40
0.5
  9
$LIMMIN
 10
-3.515625
 20
-9.9375
  9
$LIMMAX
 10
31.640625
 20
89.4375
  9
$FILLMODE
 70
1
  9
$LTSCALE
 40
1
  9
$MEASUREMENT
 70
0
  9
$ATTMODE
 70
1
  9
$PDMODE
 70
0
  9
$PDSIZE
 40
0
  9
$TILEMODE
 70
1
  9
$UCSORG
 10
0
 20
0
 30
0
  9
$UCSXDIR
 10
1
 20
0
 30
0
  9
$UCSYDIR
 10
0
 20
1
 30
0
  9
$INSBASE
 10
0
 20
0
 30
0
  0
ENDSEC
  0
SECTION
  2
CLASSES
  0
CLASS
  1
IMAGE
  2
AcDbRasterImage
  3
ISM
 90
2175
280
0
281
1
  0
CLASS
  1
IMAGEDEF
  2
AcDbRasterImageDef
  3
ISM
 90
0
280
0
281
0
  0
CLASS
  1
WIPEOUT
  2
AcDbWipeout
  3
"WipeOut"
 90
2175
280
0
281
1
  0
CLASS
  1
WIPEOUTVARIABLES
  2
AcDbWipeoutVariables
  3
"WipeOut"
 90
0
280
0
281
0
  0
CLASS
  1
MPOLYGON
  2
AcDbMPolygon
  3
"AcMPolygonObj15"
 90
3071
280
0
281
1
  0
ENDSEC
  0
SECTION
  2
TABLES
  0
TABLE
  2
APPID
  5
33
100
AcDbSymbolTable
  0
APPID
  5
34
100
AcDbSymbolTableRecord
100
AcDbRegAppTableRecord
  2
ACAD
 70
0
  0
APPID
  5
12
100
AcDbSymbolTableRecord
100
AcDbRegAppTableRecord
  2
CSTINVENTORY
 70
0
  0
APPID
  5
35
100
AcDbSymbolTableRecord
100
AcDbRegAppTableRecord
  2
AcDbAttr
 70
0
  0
APPID
  5
36
100
AcDbSymbolTableRecord
100
AcDbRegAppTableRecord
  2
PE_URL
 70
0
  0
ENDTAB
  0
TABLE
  2
BLOCK_RECORD
  5
37
100
AcDbSymbolTable
  0
BLOCK_RECORD
  5
18
100
AcDbSymbolTableRecord
100
AcDbBlockTableRecord
  2
*MODEL_SPACE
  0
BLOCK_RECORD
  5
15
100
AcDbSymbolTableRecord
100
AcDbBlockTableRecord
  2
*PAPER_SPACE
  0
BLOCK_RECORD
  5
10
100
AcDbSymbolTableRecord
100
AcDbBlockTableRecord
  2
_CLOSEDFILLED
  0
ENDTAB
  0
TABLE
  2
STYLE
  5
3
100
AcDbSymbolTable
  0
STYLE
  5
A
100
AcDbSymbolTableRecord
100
AcDbTextStyleTableRecord
  2
STANDARD
 70
0
 40
0
 41
1
 50
0
 71
0
 42
2.5
  3
txt
  4

1001
ACAD
1000

1071
0
  0
ENDTAB
  0
TABLE
  2
LTYPE
  5
1
100
AcDbSymbolTable
  0
LTYPE
  5
9
100
AcDbSymbolTableRecord
100
AcDbLinetypeTableRecord
  2
CONTINUOUS
 70
0
  3

 72
65
 73
0
 40
0
  0
LTYPE
  5
7
100
AcDbSymbolTableRecord
100
AcDbLinetypeTableRecord
  2
BYLAYER
 70
0
  3

 72
65
 73
0
 40
0
  0
LTYPE
  5
8
100
AcDbSymbolTableRecord
100
AcDbLinetypeTableRecord
  2
BYBLOCK
 70
0
  3

 72
65
 73
0
 40
0
  0
LTYPE
  5
13
100
AcDbSymbolTableRecord
100
AcDbLinetypeTableRecord
  2
SBDashedLine
 70
0
  3
_ 
 72
65
 73
2
 40
0.375
 49
0.21875
 74
0
 49
-0.15625
 74
0
  0
ENDTAB
  0
TABLE
  2
LAYER
  5
2
100
AcDbSymbolTable
  0
LAYER
  5
E
100
AcDbSymbolTableRecord
100
AcDbLayerTableRecord
  2
0
 70
0
 62
7
  6
CONTINUOUS
290
1
370
-3
390
0
  0
ENDTAB
  0
TABLE
  2
VPORT
  5
38
100
AcDbSymbolTable
  0
VPORT
  5
3A
100
AcDbSymbolTableRecord
100
AcDbViewportTableRecord
  2
*ACTIVE
 70
0
 10
0
 20
0
 11
1
 21
1
 12
14.0625
 22
39.75
 32
0
 13
0
 23
0
 14
1
 24
1
 15
1
 25
1
 16
0
 26
0
 36
1
 17
0
 27
0
 37
0
 40
79.5
 41
0.35377358490566
 42
50
 43
0
 44
0
 50
0
 51
0
 71
0
 72
100
 73
1
 74
1
 75
0
 76
0
 77
0
 78
0
  0
ENDTAB
  0
TABLE
  2
VIEW
  5
3B
100
AcDbSymbolTable
  0
ENDTAB
  0
TABLE
  2
UCS
  5
3C
100
AcDbSymbolTable
  0
ENDTAB
  0
TABLE
  2
DIMSTYLE
  5
4
100
AcDbSymbolTable
 70
1
100
AcDbDimStyleTable
 71
0
  0
DIMSTYLE
105
B
100
AcDbSymbolTableRecord
100
AcDbDimStyleTableRecord
  2
STANDARD
 70
0
  3

 40
1
 41
0.18
 42
0.0625
 44
0.18
 47
0
 48
0
 73
1
 74
1
 75
0
 76
0
 77
0
140
0.8125
277
5
141
0.09
144
1
147
0.0625
173
0
174
0
176
0
177
0
178
0
278
46
281
0
282
0
271
4
340
A
371
-1
372
-1
  0
ENDTAB
  0
ENDSEC
  0
SECTION
  2
BLOCKS
  0
BLOCK
  5
3D
100
AcDbEntity
  8
0
100
AcDbBlockBegin
  2
*MODEL_SPACE
 70
0
 10
0
 20
0
  0
ENDBLK
  5
3E
100
AcDbEntity
  8
0
100
AcDbBlockEnd
  0
BLOCK
  5
3F
100
AcDbEntity
  8
0
100
AcDbBlockBegin
  2
*PAPER_SPACE
 70
0
 10
0
 20
0
  0
ENDBLK
  5
40
100
AcDbEntity
  8
0
100
AcDbBlockEnd
  0
BLOCK
  5
F
100
AcDbEntity
  8
0
100
AcDbBlockBegin
  2
_CLOSEDFILLED
 70
0
 10
0
 20
0
 30
0
  3
_CLOSEDFILLED
  1

  0
SOLID
  5
C
100
AcDbEntity
  8
0
100
AcDbTrace
370
-2
 62
0
 10
-1
 20
0.166666666666667
 30
0
 11
0
 21
0
 31
0
 12
-1
 22
0.166666666666667
 32
0
 13
-1
 23
-0.166666666666667
 33
0
  0
LINE
  5
D
100
AcDbEntity
  8
0
100
AcDbLine
370
-2
 62
0
 10
-1
 20
0
 30
0
 11
-2
 21
0
 31
0
  0
ENDBLK
  5
41
100
AcDbEntity
  8
0
100
AcDbBlockEnd
  0
ENDSEC
  0
SECTION
  2
ENTITIES
  0
LINE
  5
16
100
AcDbEntity
  8
0
100
AcDbLine
370
90
 62
7
 10
0.125
 20
0
 30
0
 11
0.114386790023381
 21
6.75000154512984
 31
0
  0
LINE
  5
19
100
AcDbEntity
  8
0
100
AcDbLine
370
90
 62
7
 10
0.114386790023381
 20
6.75000154512984
 30
0
 11
1.14252086693687
 21
6.75161810814386
 31
0
  0
ARC
  5
1A
100
AcDbEntity
  8
0
100
AcDbCircle
370
90
 62
7
  6
BYLAYER
 10
1.14311048884955
 20
6.37661857168281
 30
0
 40
0.375
100
AcDbArc
 50
46.748329402176
 51
90.0900876293984
  0
ARC
  5
1B
100
AcDbEntity
  8
0
100
AcDbCircle
370
90
 62
7
  6
BYLAYER
 10
1.61418839523001
 20
6.87735987826756
 30
0
 40
0.3125
100
AcDbArc
 50
226.748329402176
 51
384.710064958056
  0
ARC
  5
1C
100
AcDbEntity
  8
0
100
AcDbCircle
370
90
 62
7
  6
BYLAYER
 10
2.23873729149072
 20
7.16475320835637
 30
0
 40
0.375
100
AcDbArc
 50
180.090087629398
 51
204.710064958055
  0
LINE
  5
1D
100
AcDbEntity
  8
0
100
AcDbLine
370
90
 62
7
 10
1.86373775502967
 20
7.16416358644369
 30
0
 11
1.86110068590237
 21
8.84133955140794
 31
0
  0
ARC
  5
1E
100
AcDbEntity
  8
0
100
AcDbCircle
370
90
 62
7
  6
BYLAYER
 10
2.23610022236341
 20
8.84192917332061
 30
0
 40
0.375
100
AcDbArc
 50
155.470110300741
 51
180.090087629398
  0
ARC
  5
1F
100
AcDbEntity
  8
0
100
AcDbCircle
370
90
 62
7
  6
BYLAYER
 10
1.61065066375396
 20
9.12735709703384
 30
0
 40
0.3125
100
AcDbArc
 50
335.470110300741
 51
493.431845856621
  0
ARC
  5
20
100
AcDbEntity
  8
0
100
AcDbCircle
370
90
 62
7
  6
BYLAYER
 10
1.13800043227303
 20
9.62661455434522
 30
0
 40
0.375
100
AcDbArc
 50
270.090087629398
 51
313.431845856621
  0
LINE
  5
21
100
AcDbEntity
  8
0
100
AcDbLine
370
90
 62
7
 10
1.13859005418571
 20
9.25161501788417
 30
0
 11
0.110455977272217
 21
9.24999845487016
 31
0
  0
LINE
  5
22
100
AcDbEntity
  8
0
100
AcDbLine
370
90
 62
7
 10
0.110455977272217
 20
9.24999845487016
 30
0
 11
0.0145440227277833
 21
70.2500015451298
 31
0
  0
LINE
  5
23
100
AcDbEntity
  8
0
100
AcDbLine
370
90
 62
7
 10
0.0106132099766193
 20
72.7499984548702
 30
0
 11
1.03874728689011
 21
72.7516150178842
 31
0
  0
ARC
  5
24
100
AcDbEntity
  8
0
100
AcDbCircle
370
90
 62
7
  6
BYLAYER
 10
1.03815766497744
 20
73.1266145543452
 30
0
 40
0.375
100
AcDbArc
 50
270.090087629398
 51
313.431845856621
  0
ARC
  5
25
100
AcDbEntity
  8
0
100
AcDbCircle
370
90
 62
7
  6
BYLAYER
 10
1.51080789645837
 20
72.6273570970338
 30
0
 40
0.3125
100
AcDbArc
 50
335.470110300742
 51
493.431845856621
  0
ARC
  5
26
100
AcDbEntity
  8
0
100
AcDbCircle
370
90
 62
7
  6
BYLAYER
 10
2.13625745506782
 20
72.3419291733206
 30
0
 40
0.375
100
AcDbArc
 50
155.47011030074
 51
180.090087629397
  0
LINE
  5
27
100
AcDbEntity
  8
0
100
AcDbLine
370
90
 62
7
 10
1.76125791860677
 20
72.3413395514079
 30
0
 11
1.76389498773407
 21
70.6641635864437
 31
0
  0
ARC
  5
28
100
AcDbEntity
  8
0
100
AcDbCircle
370
90
 62
7
  6
BYLAYER
 10
2.13889452419512
 20
70.6647532083564
 30
0
 40
0.375
100
AcDbArc
 50
180.090087629397
 51
204.710064958055
  0
ARC
  5
29
100
AcDbEntity
  8
0
100
AcDbCircle
370
90
 62
7
  6
BYLAYER
 10
1.51434562793441
 20
70.3773598782676
 30
0
 40
0.3125
100
AcDbArc
 50
226.748329402175
 51
384.710064958055
  0
ARC
  5
2A
100
AcDbEntity
  8
0
100
AcDbCircle
370
90
 62
7
  6
BYLAYER
 10
1.04326772155395
 20
69.8766185716828
 30
0
 40
0.375
100
AcDbArc
 50
46.7483294021764
 51
90.0900876293984
  0
LINE
  5
2B
100
AcDbEntity
  8
0
100
AcDbLine
370
90
 62
7
 10
1.04267809964127
 20
70.2516181081439
 30
0
 11
0.0145440227277833
 21
70.2500015451298
 31
0
  0
LINE
  5
2C
100
AcDbEntity
  8
0
100
AcDbLine
370
90
 62
7
 10
0.0106132099766193
 20
72.7499984548702
 30
0
 11
0
 21
79.5
 31
0
  0
LINE
  5
2D
100
AcDbEntity
  8
0
100
AcDbLine
370
90
 62
7
 10
0.125
 20
0
 30
0
 11
28.125
 21
0
 31
0
  0
CIRCLE
  5
2E
100
AcDbEntity
  8
0
100
AcDbCircle
370
90
 62
7
  6
BYLAYER
 10
25.125
 20
32
 30
0
 40
0.25
  0
CIRCLE
  5
2F
100
AcDbEntity
  8
0
100
AcDbCircle
370
90
 62
7
  6
BYLAYER
 10
25.125
 20
40
 30
0
 40
0.25
  0
LINE
  5
30
100
AcDbEntity
  8
0
100
AcDbLine
370
90
 62
7
 10
28.125
 20
0
 30
0
 11
28.125
 21
79.5
 31
0
  0
LINE
  5
31
100
AcDbEntity
  8
0
100
AcDbLine
370
90
 62
7
 10
0
 20
79.5
 30
0
 11
28.125
 21
79.5
 31
0
  0
ENDSEC
  0
SECTION
  2
OBJECTS
  0
DICTIONARY
  5
42
100
AcDbDictionary
  3
ACAD_GROUP
350
43
  3
ACAD_MATERIAL
350
44
  3
ACAD_WIPEOUT_VARS
350
45
  3
ACAD_MLINESTYLE
350
46
  3
ACAD_LAYOUT
350
47
  0
DICTIONARY
  5
43
330
42
100
AcDbDictionary
  0
DICTIONARY
  5
44
330
42
100
AcDbDictionary
  0
WIPEOUTVARIABLES
  5
45
330
42
100
AcDbWipeoutVariables
 70
1
  0
DICTIONARY
  5
46
330
42
100
AcDbDictionary
  3
STANDARD
350
48
  0
MLINESTYLE
  5
48
100
AcDbMlineStyle
  2
STANDARD
 70
0
  3

 62
256
 51
90
 52
90
 71
2
 49
0.5
 62
256
  6
ByLayer
 49
-0.5
 62
256
  6
ByLayer
  0
DICTIONARY
  5
47
100
AcDbDictionary
281
1
  3
Model
350
32
  0
LAYOUT
  5
32
102
{ACAD_REACTORS
330
47
102
}
330
47
100
AcDbPlotSettings
  1

  2
none_device
  4

  6

 40
0
 41
0
 42
0
 43
0
 44
0
 45
0
 46
0
 47
0
 48
0
 49
0
 70
1712
 72
1
 73
0
 74
5
 75
16
 76
0
 77
0
 78
100
140
0
141
0
142
1
143
1
147
1
148
0
149
0
100
AcDbLayout
  1
Model
 70
1
 71
1
 10
0
 20
0
 11
28.125
 21
79.5
 12
0
 22
0
 32
0
 14
0
 24
0
 34
0
 15
28.125
 25
79.5
 35
0
146
0
 13
0
 23
0
 33
0
 16
1
 26
0
 36
0
 17
0
 27
1
 37
0
 76
0
330
18
  0
ENDSEC
  0
EOF
