999
The file was created in CADSoftTools software
999

  0
SECTION
  2
HEADER
  9
$ACADVER
  1
AC1015
  9
$DWGCODEPAGE
  3
ANSI_1252
  9
$CLAYER
  8
0
  9
$CELTYPE
  6
BYLAYER
  9
$CELTSCALE
 40
1
  9
$CELWEIGHT
370
-1
  9
$DIMALT
 70
0
  9
$DIMALTF
 40
1
  9
$DIMLUNIT
 70
5
  9
$DIMSTYLE
  2
$STANDARD
  9
$INSUNITS
 70
1
  9
$DIMTXT
 40
0.8125
  9
$DIMPOST
  1

  9
$DIMAPOST
  1

  9
$DIMSCALE
 40
1
  9
$DIMASZ
 40
0.18
  9
$DIMCLRD
 70
0
  9
$DIMCLRE
 70
0
  9
$DIMCLRT
 70
0
  9
$DIMEXE
 40
0.18
  9
$DIMEXO
 40
0.0625
  9
$DIMGAP
 40
0.0625
  9
$DIMLFAC
 40
1
  9
$DIMDEC
 70
4
  9
$DIMTAD
 70
0
  9
$DIMCEN
 40
0.09
  9
$DIMTIH
 70
1
  9
$DIMTIX
 70
0
  9
$DIMTOH
 70
1
  9
$DIMSE1
 70
0
  9
$DIMSE2
 70
0
  9
$DIMSD1
 70
0
  9
$DIMSD2
 70
0
  9
$DIMLWD
 70
-1
  9
$DIMLWE
 70
-1
  9
$DIMSAH
 70
0
  9
$DIMBLK
  1

  9
$DIMBLK1
  1

  9
$DIMBLK2
  1

  9
$DIMLDRBLK
  1

  9
$DIMTP
 40
0
  9
$DIMTM
 40
0
  9
$DIMDSEP
 70
46
  9
$DIMTXSTY
  7
STANDARD
  9
$TEXTSIZE
 40
0.18
  9
$TEXTSTYLE
  7
STANDARD
  9
$HANDSEED
  5
0000000000000052
  9
$FILLETRAD
 40
0.5
  9
$LIMMIN
 10
-4.28125
 20
-12.078125
  9
$LIMMAX
 10
38.53125
 20
108.703125
  9
$FILLMODE
 70
1
  9
$LTSCALE
 40
1
  9
$MEASUREMENT
 70
0
  9
$ATTMODE
 70
1
  9
$PDMODE
 70
0
  9
$PDSIZE
 40
0
  9
$TILEMODE
 70
1
  9
$UCSORG
 10
0
 20
0
 30
0
  9
$UCSXDIR
 10
1
 20
0
 30
0
  9
$UCSYDIR
 10
0
 20
1
 30
0
  9
$INSBASE
 10
0
 20
0
 30
0
  0
ENDSEC
  0
SECTION
  2
CLASSES
  0
CLASS
  1
IMAGE
  2
AcDbRasterImage
  3
ISM
 90
2175
280
0
281
1
  0
CLASS
  1
IMAGEDEF
  2
AcDbRasterImageDef
  3
ISM
 90
0
280
0
281
0
  0
CLASS
  1
WIPEOUT
  2
AcDbWipeout
  3
"WipeOut"
 90
2175
280
0
281
1
  0
CLASS
  1
WIPEOUTVARIABLES
  2
AcDbWipeoutVariables
  3
"WipeOut"
 90
0
280
0
281
0
  0
CLASS
  1
MPOLYGON
  2
AcDbMPolygon
  3
"AcMPolygonObj15"
 90
3071
280
0
281
1
  0
ENDSEC
  0
SECTION
  2
TABLES
  0
TABLE
  2
APPID
  5
3C
100
AcDbSymbolTable
  0
APPID
  5
3D
100
AcDbSymbolTableRecord
100
AcDbRegAppTableRecord
  2
ACAD
 70
0
  0
APPID
  5
12
100
AcDbSymbolTableRecord
100
AcDbRegAppTableRecord
  2
CSTINVENTORY
 70
0
  0
APPID
  5
3E
100
AcDbSymbolTableRecord
100
AcDbRegAppTableRecord
  2
AcDbAttr
 70
0
  0
APPID
  5
3F
100
AcDbSymbolTableRecord
100
AcDbRegAppTableRecord
  2
PE_URL
 70
0
  0
ENDTAB
  0
TABLE
  2
BLOCK_RECORD
  5
40
100
AcDbSymbolTable
  0
BLOCK_RECORD
  5
1A
100
AcDbSymbolTableRecord
100
AcDbBlockTableRecord
  2
*MODEL_SPACE
  0
BLOCK_RECORD
  5
17
100
AcDbSymbolTableRecord
100
AcDbBlockTableRecord
  2
*PAPER_SPACE
  0
BLOCK_RECORD
  5
10
100
AcDbSymbolTableRecord
100
AcDbBlockTableRecord
  2
_CLOSEDFILLED
  0
ENDTAB
  0
TABLE
  2
STYLE
  5
3
100
AcDbSymbolTable
  0
STYLE
  5
A
100
AcDbSymbolTableRecord
100
AcDbTextStyleTableRecord
  2
STANDARD
 70
0
 40
0
 41
1
 50
0
 71
0
 42
2.5
  3
txt
  4

1001
ACAD
1000

1071
0
  0
ENDTAB
  0
TABLE
  2
LTYPE
  5
1
100
AcDbSymbolTable
  0
LTYPE
  5
9
100
AcDbSymbolTableRecord
100
AcDbLinetypeTableRecord
  2
CONTINUOUS
 70
0
  3

 72
65
 73
0
 40
0
  0
LTYPE
  5
7
100
AcDbSymbolTableRecord
100
AcDbLinetypeTableRecord
  2
BYLAYER
 70
0
  3

 72
65
 73
0
 40
0
  0
LTYPE
  5
8
100
AcDbSymbolTableRecord
100
AcDbLinetypeTableRecord
  2
BYBLOCK
 70
0
  3

 72
65
 73
0
 40
0
  0
LTYPE
  5
13
100
AcDbSymbolTableRecord
100
AcDbLinetypeTableRecord
  2
SBDashedLine
 70
0
  3
_ 
 72
65
 73
2
 40
0.375
 49
0.21875
 74
0
 49
-0.15625
 74
0
  0
ENDTAB
  0
TABLE
  2
LAYER
  5
2
100
AcDbSymbolTable
  0
LAYER
  5
E
100
AcDbSymbolTableRecord
100
AcDbLayerTableRecord
  2
0
 70
0
 62
7
  6
CONTINUOUS
290
1
370
-3
390
0
  0
LAYER
  5
14
100
AcDbSymbolTableRecord
100
AcDbLayerTableRecord
  2
0
 70
0
 62
7
290
1
370
-3
390
0
  0
LAYER
  5
15
100
AcDbSymbolTableRecord
100
AcDbLayerTableRecord
  2
1
 70
0
 62
7
290
1
370
-3
390
0
  0
ENDTAB
  0
TABLE
  2
VPORT
  5
41
100
AcDbSymbolTable
  0
VPORT
  5
43
100
AcDbSymbolTableRecord
100
AcDbViewportTableRecord
  2
*ACTIVE
 70
0
 10
0
 20
0
 11
1
 21
1
 12
17.125
 22
48.3125
 32
0
 13
0
 23
0
 14
1
 24
1
 15
1
 25
1
 16
0
 26
0
 36
1
 17
0
 27
0
 37
0
 40
96.625
 41
0.354463130659767
 42
50
 43
0
 44
0
 50
0
 51
0
 71
0
 72
100
 73
1
 74
1
 75
0
 76
0
 77
0
 78
0
  0
ENDTAB
  0
TABLE
  2
VIEW
  5
44
100
AcDbSymbolTable
  0
ENDTAB
  0
TABLE
  2
UCS
  5
45
100
AcDbSymbolTable
  0
ENDTAB
  0
TABLE
  2
DIMSTYLE
  5
4
100
AcDbSymbolTable
 70
1
100
AcDbDimStyleTable
 71
0
  0
DIMSTYLE
105
B
100
AcDbSymbolTableRecord
100
AcDbDimStyleTableRecord
  2
STANDARD
 70
0
  3

 40
1
 41
0.18
 42
0.0625
 44
0.18
 47
0
 48
0
 73
1
 74
1
 75
0
 76
0
 77
0
140
0.8125
277
5
141
0.09
144
1
147
0.0625
173
0
174
0
176
0
177
0
178
0
278
46
281
0
282
0
271
4
340
A
371
-1
372
-1
  0
ENDTAB
  0
ENDSEC
  0
SECTION
  2
BLOCKS
  0
BLOCK
  5
46
100
AcDbEntity
  8
0
100
AcDbBlockBegin
  2
*MODEL_SPACE
 70
0
 10
0
 20
0
  0
ENDBLK
  5
47
100
AcDbEntity
  8
0
100
AcDbBlockEnd
  0
BLOCK
  5
48
100
AcDbEntity
  8
0
100
AcDbBlockBegin
  2
*PAPER_SPACE
 70
0
 10
0
 20
0
  0
ENDBLK
  5
49
100
AcDbEntity
  8
0
100
AcDbBlockEnd
  0
BLOCK
  5
F
100
AcDbEntity
  8
0
100
AcDbBlockBegin
  2
_CLOSEDFILLED
 70
0
 10
0
 20
0
 30
0
  3
_CLOSEDFILLED
  1

  0
SOLID
  5
C
100
AcDbEntity
  8
0
100
AcDbTrace
370
-2
 62
0
 10
-1
 20
0.166666666666667
 30
0
 11
0
 21
0
 31
0
 12
-1
 22
0.166666666666667
 32
0
 13
-1
 23
-0.166666666666667
 33
0
  0
LINE
  5
D
100
AcDbEntity
  8
0
100
AcDbLine
370
-2
 62
0
 10
-1
 20
0
 30
0
 11
-2
 21
0
 31
0
  0
ENDBLK
  5
4A
100
AcDbEntity
  8
0
100
AcDbBlockEnd
  0
ENDSEC
  0
SECTION
  2
ENTITIES
  0
LINE
  5
18
100
AcDbEntity
  8
0
100
AcDbLine
370
90
 62
7
 10
0
 20
96.625
 30
0
 11
0.125
 21
0
 31
0
  0
LINE
  5
1B
100
AcDbEntity
  8
0
100
AcDbLine
370
90
 62
7
 10
0.125
 20
0
 30
0
 11
34.25
 21
0
 31
0
  0
LINE
  5
1C
100
AcDbEntity
  8
0
100
AcDbLine
370
90
 62
7
 10
34.25
 20
0
 30
0
 11
34.25
 21
96.625
 31
0
  0
LINE
  5
1D
100
AcDbEntity
  8
0
100
AcDbLine
370
90
 62
7
 10
34.25
 20
96.625
 30
0
 11
0
 21
96.625
 31
0
  0
LINE
  5
1E
100
AcDbEntity
  8
1
100
AcDbLine
370
90
 62
7
 10
0.116591201481025
 20
6.50000125516763
 30
0
 11
1.20722563665648
 21
6.50141216646799
 31
0
  0
ARC
  5
1F
100
AcDbEntity
  8
1
100
AcDbCircle
370
90
 62
7
  6
BYLAYER
 10
1.20771075914834
 20
6.12641248025989
 30
0
 40
0.375
100
AcDbArc
 50
46.7323630503332
 51
90.0741212775556
  0
ARC
  5
20
100
AcDbEntity
  8
1
100
AcDbCircle
370
90
 62
7
  6
BYLAYER
 10
1.67892818651746
 20
6.62702249428641
 30
0
 40
0.3125
100
AcDbArc
 50
226.732363050333
 51
384.694098606213
  0
ARC
  5
21
100
AcDbEntity
  8
1
100
AcDbCircle
370
90
 62
7
  6
BYLAYER
 10
2.30355714510757
 20
6.91424177304506
 30
0
 40
0.375
100
AcDbArc
 50
180.074121277556
 51
204.694098606213
  0
LINE
  5
22
100
AcDbEntity
  8
1
100
AcDbLine
370
90
 62
7
 10
1.92855745889947
 20
6.9137566505532
 30
0
 11
1.92574093080592
 21
9.09093286686812
 31
0
  0
ARC
  5
23
100
AcDbEntity
  8
1
100
AcDbCircle
370
90
 62
7
  6
BYLAYER
 10
2.30074061701401
 20
9.09141798935998
 30
0
 40
0.375
100
AcDbArc
 50
155.454143948898
 51
180.074121277555
  0
ARC
  5
24
100
AcDbEntity
  8
1
100
AcDbCircle
370
90
 62
7
  6
BYLAYER
 10
1.67537062157715
 20
9.37702019314576
 30
0
 40
0.3125
100
AcDbArc
 50
335.454143948899
 51
493.415879504778
  0
ARC
  5
25
100
AcDbEntity
  8
1
100
AcDbCircle
370
90
 62
7
  6
BYLAYER
 10
1.20285953422974
 20
9.87640934234082
 30
0
 40
0.375
100
AcDbArc
 50
270.074121277556
 51
313.415879504778
  0
LINE
  5
26
100
AcDbEntity
  8
1
100
AcDbLine
370
90
 62
7
 10
1.2033446567216
 20
9.50140965613273
 30
0
 11
0.112710221546142
 21
9.49999874483237
 31
0
  0
LINE
  5
27
100
AcDbEntity
  8
1
100
AcDbLine
370
90
 62
7
 10
0.0644404899674416
 20
46.8125012551676
 30
0
 11
1.1550749251429
 21
46.813912166468
 31
0
  0
ARC
  5
28
100
AcDbEntity
  8
1
100
AcDbCircle
370
90
 62
7
  6
BYLAYER
 10
1.15556004763476
 20
46.4389124802599
 30
0
 40
0.375
100
AcDbArc
 50
46.7323630503331
 51
90.0741212775556
  0
ARC
  5
29
100
AcDbEntity
  8
1
100
AcDbCircle
370
90
 62
7
  6
BYLAYER
 10
1.62677747500387
 20
46.9395224942864
 30
0
 40
0.3125
100
AcDbArc
 50
226.732363050333
 51
384.694098606212
  0
ARC
  5
2A
100
AcDbEntity
  8
1
100
AcDbCircle
370
90
 62
7
  6
BYLAYER
 10
2.25140643359398
 20
47.2267417730451
 30
0
 40
0.375
100
AcDbArc
 50
180.074121277555
 51
204.694098606213
  0
LINE
  5
2B
100
AcDbEntity
  8
1
100
AcDbLine
370
90
 62
7
 10
1.87640674738589
 20
47.2262566505532
 30
0
 11
1.87359021929234
 21
49.4034328668681
 31
0
  0
ARC
  5
2C
100
AcDbEntity
  8
1
100
AcDbCircle
370
90
 62
7
  6
BYLAYER
 10
2.24858990550043
 20
49.40391798936
 30
0
 40
0.375
100
AcDbArc
 50
155.454143948899
 51
180.074121277555
  0
ARC
  5
2D
100
AcDbEntity
  8
1
100
AcDbCircle
370
90
 62
7
  6
BYLAYER
 10
1.62321991006356
 20
49.6895201931458
 30
0
 40
0.3125
100
AcDbArc
 50
335.454143948898
 51
493.415879504778
  0
ARC
  5
2E
100
AcDbEntity
  8
1
100
AcDbCircle
370
90
 62
7
  6
BYLAYER
 10
1.15070882271615
 20
50.1889093423408
 30
0
 40
0.375
100
AcDbArc
 50
270.074121277556
 51
313.415879504778
  0
LINE
  5
2F
100
AcDbEntity
  8
1
100
AcDbLine
370
90
 62
7
 10
1.15119394520801
 20
49.8139096561327
 30
0
 11
0.0605595100325584
 21
49.8124987448324
 31
0
  0
LINE
  5
30
100
AcDbEntity
  8
1
100
AcDbLine
370
90
 62
7
 10
0.00840879851897494
 20
90.1249987448324
 30
0
 11
1.09904323369443
 21
90.1264096561327
 31
0
  0
ARC
  5
31
100
AcDbEntity
  8
1
100
AcDbCircle
370
90
 62
7
  6
BYLAYER
 10
1.09855811120257
 20
90.5014093423408
 30
0
 40
0.375
100
AcDbArc
 50
270.074121277556
 51
313.415879504777
  0
ARC
  5
32
100
AcDbEntity
  8
1
100
AcDbCircle
370
90
 62
7
  6
BYLAYER
 10
1.57106919854998
 20
90.0020201931458
 30
0
 40
0.3125
100
AcDbArc
 50
335.454143948899
 51
493.415879504778
  0
ARC
  5
33
100
AcDbEntity
  8
1
100
AcDbCircle
370
90
 62
7
  6
BYLAYER
 10
2.19643919398685
 20
89.71641798936
 30
0
 40
0.375
100
AcDbArc
 50
155.454143948899
 51
180.074121277557
  0
LINE
  5
34
100
AcDbEntity
  8
1
100
AcDbLine
370
90
 62
7
 10
1.82143950777876
 20
89.7159328668681
 30
0
 11
1.82425603587231
 21
87.5387566505532
 31
0
  0
ARC
  5
35
100
AcDbEntity
  8
1
100
AcDbCircle
370
90
 62
7
  6
BYLAYER
 10
2.1992557220804
 20
87.5392417730451
 30
0
 40
0.375
100
AcDbArc
 50
180.074121277557
 51
204.694098606213
  0
ARC
  5
36
100
AcDbEntity
  8
1
100
AcDbCircle
370
90
 62
7
  6
BYLAYER
 10
1.57462676349029
 20
87.2520224942864
 30
0
 40
0.3125
100
AcDbArc
 50
226.732363050334
 51
384.694098606211
  0
ARC
  5
37
100
AcDbEntity
  8
1
100
AcDbCircle
370
90
 62
7
  6
BYLAYER
 10
1.10340933612117
 20
86.7514124802599
 30
0
 40
0.375
100
AcDbArc
 50
46.7323630503331
 51
90.0741212775556
  0
LINE
  5
38
100
AcDbEntity
  8
1
100
AcDbLine
370
90
 62
7
 10
1.10292421362931
 20
87.126412166468
 30
0
 11
0.0122897784538582
 21
87.1250012551676
 31
0
  0
CIRCLE
  5
39
100
AcDbEntity
  8
1
100
AcDbCircle
370
90
 62
1
  6
BYLAYER
 10
31.25
 20
36
 30
0
 40
0.25
  0
CIRCLE
  5
3A
100
AcDbEntity
  8
1
100
AcDbCircle
370
90
 62
1
  6
BYLAYER
 10
31.25
 20
44
 30
0
 40
0.25
  0
ENDSEC
  0
SECTION
  2
OBJECTS
  0
DICTIONARY
  5
4B
100
AcDbDictionary
  3
ACAD_GROUP
350
4C
  3
ACAD_MATERIAL
350
4D
  3
ACAD_WIPEOUT_VARS
350
4E
  3
ACAD_MLINESTYLE
350
4F
  3
ACAD_LAYOUT
350
50
  0
DICTIONARY
  5
4C
330
4B
100
AcDbDictionary
  0
DICTIONARY
  5
4D
330
4B
100
AcDbDictionary
  0
WIPEOUTVARIABLES
  5
4E
330
4B
100
AcDbWipeoutVariables
 70
1
  0
DICTIONARY
  5
4F
330
4B
100
AcDbDictionary
  3
STANDARD
350
51
  0
MLINESTYLE
  5
51
100
AcDbMlineStyle
  2
STANDARD
 70
0
  3

 62
256
 51
90
 52
90
 71
2
 49
0.5
 62
256
  6
ByLayer
 49
-0.5
 62
256
  6
ByLayer
  0
DICTIONARY
  5
50
100
AcDbDictionary
281
1
  3
Model
350
3B
  0
LAYOUT
  5
3B
102
{ACAD_REACTORS
330
50
102
}
330
50
100
AcDbPlotSettings
  1

  2
none_device
  4

  6

 40
0
 41
0
 42
0
 43
0
 44
0
 45
0
 46
0
 47
0
 48
0
 49
0
 70
1712
 72
1
 73
0
 74
5
 75
16
 76
0
 77
0
 78
100
140
0
141
0
142
1
143
1
147
1
148
0
149
0
100
AcDbLayout
  1
Model
 70
1
 71
1
 10
0
 20
0
 11
34.25
 21
96.625
 12
0
 22
0
 32
0
 14
0
 24
0
 34
0
 15
34.25
 25
96.625
 35
0
146
0
 13
0
 23
0
 33
0
 16
1
 26
0
 36
0
 17
0
 27
1
 37
0
 76
0
330
1A
  0
ENDSEC
  0
EOF
